<?xml version="1.0" encoding="UTF-8" standalone="no"?>
<!-- Created with Inkscape (http://www.inkscape.org/) -->

<svg
   width="900"
   height="1950"
   viewBox="0 0 238.125 515.9375"
   version="1.1"
   id="svg1"
   xmlns:inkscape="http://www.inkscape.org/namespaces/inkscape"
   xmlns:sodipodi="http://sodipodi.sourceforge.net/DTD/sodipodi-0.dtd"
   xmlns="http://www.w3.org/2000/svg"
   xmlns:svg="http://www.w3.org/2000/svg">
  <sodipodi:namedview
     id="namedview1"
     pagecolor="#ffffff"
     bordercolor="#000000"
     borderopacity="0.25"
     inkscape:showpageshadow="2"
     inkscape:pageopacity="0.0"
     inkscape:pagecheckerboard="0"
     inkscape:deskcolor="#d1d1d1"
     inkscape:document-units="mm" />
  <defs
     id="defs1" />
  <g
     inkscape:label="Layer 1"
     inkscape:groupmode="layer"
     id="layer1">
    <rect
       style="fill:#ffffff;fill-opacity:1;stroke:none;stroke-width:3.673;stroke-linecap:round;stroke-linejoin:round;stroke-dasharray:none"
       id="rect2"
       width="238.125"
       height="515.9375"
       x="0"
       y="0"
       ry="0" />
    <path
       id="rect1"
       style="fill:#000000;fill-opacity:1;stroke:none;stroke-width:1.96293;stroke-linecap:round;stroke-linejoin:round;stroke-dasharray:none"
       d="m 7.8829734,9.1417262 c 0,-3.0915689 2.4888406,-5.5804103 5.5804076,-5.5804103 h 5.050606 V -7.1277348 c 0,-3.0915652 2.489251,-5.5808162 5.580819,-5.5808162 3.091567,0 5.580406,2.489251 5.580406,5.5808162 V 25.771392 h 15.94055 c 3.091567,0 5.580407,2.488842 5.580407,5.580407 0,3.091569 -2.48884,5.580408 -5.580407,5.580408 H 24.094806 c -3.091567,0 -5.580819,-2.48884 -5.580819,-5.580408 V 14.722136 h -5.050606 c -3.091567,0 -5.5804076,-2.488841 -5.5804076,-5.5804098 z" />
    <path
       id="rect1-7"
       style="fill:#000000;fill-opacity:1;stroke:none;stroke-width:1.96293;stroke-linecap:round;stroke-linejoin:round;stroke-dasharray:none"
       d="m -11.718855,65.150099 c -3.091568,0 -5.580409,-2.488841 -5.580409,-5.580409 v -5.050605 h -10.689055 c -3.091567,0 -5.580815,-2.489247 -5.580815,-5.580815 0,-3.091569 2.489248,-5.58041 5.580815,-5.58041 H 4.9108063 V 27.417309 c 0,-3.091568 2.4888418,-5.580409 5.5804087,-5.580409 3.091568,0 5.58041,2.488841 5.58041,5.580409 V 48.93827 c 0,3.091568 -2.488842,5.580815 -5.58041,5.580815 H -6.1384482 v 5.050605 c 0,3.091568 -2.4888418,5.580409 -5.5804068,5.580409 z" />
    <path
       id="rect1-6"
       style="fill:#000000;fill-opacity:1;stroke:none;stroke-width:1.96293;stroke-linecap:round;stroke-linejoin:round;stroke-dasharray:none"
       d="m 82.286609,26.976001 c -3.091567,0 -5.580409,-2.488833 -5.580409,-5.580401 V 16.344996 H 66.017147 c -3.091559,0 -5.580815,-2.489256 -5.580815,-5.580823 0,-3.0915598 2.489256,-5.5804016 5.580815,-5.5804016 H 98.916271 V -10.756783 c 0,-3.091567 2.488849,-5.580401 5.580409,-5.580401 3.09157,0 5.58041,2.488834 5.58041,5.580401 v 21.520956 c 0,3.091567 -2.48884,5.580823 -5.58041,5.580823 H 87.867019 V 21.3956 c 0,3.091568 -2.488843,5.580401 -5.58041,5.580401 z" />
    <path
       id="rect1-6-6"
       style="fill:#000000;fill-opacity:1;stroke:none;stroke-width:1.96293;stroke-linecap:round;stroke-linejoin:round;stroke-dasharray:none"
       d="m 67.973764,32.93614 c 3.091568,0 5.580406,2.488833 5.580406,5.580401 v 5.050604 h 10.689055 c 3.091559,0 5.580815,2.489256 5.580815,5.580823 0,3.09156 -2.489256,5.580402 -5.580815,5.580402 H 51.344102 v 15.940554 c 0,3.091567 -2.488842,5.580401 -5.58041,5.580401 -3.091567,0 -5.580409,-2.488834 -5.580409,-5.580401 V 49.147968 c 0,-3.091567 2.488842,-5.580823 5.580409,-5.580823 h 16.629663 v -5.050604 c 0,-3.091568 2.488843,-5.580401 5.580409,-5.580401 z" />
    <path
       id="rect1-6-9"
       style="fill:#000000;fill-opacity:1;stroke:none;stroke-width:1.96293;stroke-linecap:round;stroke-linejoin:round;stroke-dasharray:none"
       d="m 136.36845,57.00565 c 0,3.091568 -2.48884,5.58041 -5.58041,5.58041 h -5.0506 v 10.689053 c 0,3.091558 -2.48926,5.580814 -5.58082,5.580814 -3.09157,0 -5.58041,-2.489256 -5.58041,-5.580814 V 40.375988 H 98.635657 c -3.091563,0 -5.580398,-2.488843 -5.580398,-5.58041 0,-3.091567 2.488835,-5.58041 5.580398,-5.58041 h 21.520963 c 3.09156,0 5.58082,2.488843 5.58082,5.58041 v 16.629663 h 5.0506 c 3.09157,0 5.58041,2.488842 5.58041,5.580409 z" />
    <path
       id="rect1-6-3"
       style="fill:#000000;fill-opacity:1;stroke:none;stroke-width:1.96293;stroke-linecap:round;stroke-linejoin:round;stroke-dasharray:none"
       d="m 156.09774,-16.34361 c 3.09157,0 5.58042,2.488833 5.58042,5.5804 v 5.0506051 h 10.68905 c 3.09156,0 5.58082,2.4892561 5.58082,5.58082339 0,3.09155961 -2.48926,5.58040181 -5.58082,5.58040181 H 139.46808 V 21.389174 c 0,3.091568 -2.48884,5.580401 -5.58041,5.580401 -3.09156,0 -5.5804,-2.488833 -5.5804,-5.580401 V -0.13178151 c 0,-3.09156729 2.48884,-5.58082339 5.5804,-5.58082339 h 16.62967 V -10.76321 c 0,-3.091567 2.48884,-5.5804 5.5804,-5.5804 z" />
    <path
       id="rect1-6-2"
       style="fill:#000000;fill-opacity:1;stroke:none;stroke-width:1.96293;stroke-linecap:round;stroke-linejoin:round;stroke-dasharray:none"
       d="m 41.418362,88.192254 c 0,3.091567 -2.488833,5.580409 -5.580401,5.580409 h -5.050605 v 10.689057 c 0,3.09155 -2.489256,5.58082 -5.580823,5.58082 -3.091559,0 -5.580401,-2.48927 -5.580401,-5.58082 V 71.562594 H 3.6855779 c -3.09156758,0 -5.5804014,-2.488842 -5.5804014,-5.58041 0,-3.091567 2.48883382,-5.580409 5.5804014,-5.580409 H 25.206533 c 3.091567,0 5.580823,2.488842 5.580823,5.580409 v 16.629661 h 5.050605 c 3.091568,0 5.580401,2.488842 5.580401,5.580409 z" />
    <path
       id="rect1-6-7"
       style="fill:#000000;fill-opacity:1;stroke:none;stroke-width:1.96293;stroke-linecap:round;stroke-linejoin:round;stroke-dasharray:none"
       d="m -11.665895,101.06339 c 0,-3.091562 2.4888331,-5.580406 5.5804005,-5.580406 h 5.0506043 V 84.793931 c 0,-3.091559 2.4892557,-5.580815 5.580823,-5.580815 3.0915594,0 5.5804012,2.489256 5.5804012,5.580815 v 32.899119 h 15.940554 c 3.091567,0 5.580401,2.48885 5.580401,5.58042 0,3.09156 -2.488834,5.58041 -5.580401,5.58041 H 4.5459328 c -3.0915673,0 -5.580823,-2.48885 -5.580823,-5.58041 v -16.62966 h -5.0506043 c -3.0915674,0 -5.5804005,-2.48885 -5.5804005,-5.58042 z" />
    <path
       id="rect1-6-7-2"
       style="fill:#000000;fill-opacity:1;stroke:none;stroke-width:1.96293;stroke-linecap:round;stroke-linejoin:round;stroke-dasharray:none"
       d="m 54.249636,124.50324 c 3.091567,0 5.580409,2.48884 5.580409,5.58041 v 5.0506 h 10.689054 c 3.091559,0 5.580815,2.48926 5.580815,5.58082 0,3.09156 -2.489256,5.58041 -5.580815,5.58041 H 37.619973 v 15.94055 c 0,3.09156 -2.488842,5.5804 -5.58041,5.5804 -3.091566,0 -5.580408,-2.48884 -5.580408,-5.5804 v -21.52096 c 0,-3.09156 2.488842,-5.58082 5.580408,-5.58082 h 16.629663 v -5.0506 c 0,-3.09157 2.488843,-5.58041 5.58041,-5.58041 z" />
    <path
       id="rect1-6-7-9"
       style="fill:#000000;fill-opacity:1;stroke:none;stroke-width:1.96293;stroke-linecap:round;stroke-linejoin:round;stroke-dasharray:none"
       d="m 30.726837,176.69008 c 0,3.09156 -2.488834,5.58041 -5.580401,5.58041 h -5.050605 v 10.68905 c 0,3.09156 -2.489256,5.58081 -5.580823,5.58081 -3.091559,0 -5.5804016,-2.48925 -5.5804016,-5.58081 v -32.89912 h -15.940554 c -3.0915674,0 -5.5804014,-2.48885 -5.5804014,-5.58042 0,-3.09156 2.488834,-5.58041 5.5804014,-5.58041 H 14.515008 c 3.091567,0 5.580823,2.48885 5.580823,5.58041 v 16.62966 h 5.050605 c 3.091567,0 5.580401,2.48885 5.580401,5.58042 z" />
  </g>
</svg>
